<svg viewBox="0 0 300 220" xmlns="http://www.w3.org/2000/svg" fill="none">
  <!-- "2" bold -->
  <path d="M20 45 Q20 20 45 20 Q70 20 70 45 Q70 65 45 80 L20 100 L70 100 L70 115 L15 115 L15 95 L50 72 Q55 67 55 55 Q55 35 45 35 Q35 35 35 48 Z" fill="#6B22CC" opacity="0.18"/>
  <!-- "6" bold -->
  <path d="M90 20 L140 20 L140 35 L100 35 L100 58 Q107 52 120 52 Q142 52 142 78 Q142 105 120 105 Q97 105 97 78 L112 78 Q112 90 120 90 Q128 90 128 78 Q128 67 120 67 Q113 67 109 72 L97 72 L97 20 Z" fill="#E62E2E" opacity="0.15"/>
  <!-- taça estilizada -->
  <g transform="translate(165, 15)" opacity="0.12">
    <ellipse cx="60" cy="10" rx="45" ry="10" fill="#FFD700"/>
    <rect x="35" y="8" width="50" height="75" rx="6" fill="#FFD700"/>
    <ellipse cx="30" cy="42" rx="15" ry="8" fill="#FFD700"/>
    <ellipse cx="90" cy="42" rx="15" ry="8" fill="#FFD700"/>
    <rect x="35" y="80" width="50" height="14" rx="3" fill="#FFD700"/>
    <rect x="20" y="93" width="80" height="12" rx="3" fill="#FFD700"/>
  </g>
  <!-- FIFA lettering -->
  <text x="165" y="175" font-family="Arial Black, sans-serif" font-weight="900" font-size="22" fill="#00C9C8" opacity="0.15" letter-spacing="8">FIFA</text>
  <!-- WC 26 text bottom -->
  <text x="15" y="195" font-family="Arial, sans-serif" font-weight="700" font-size="13" fill="#6B22CC" opacity="0.12" letter-spacing="3">WORLD CUP</text>
</svg>
